<?xml version="1.0" encoding="UTF-8"?>
<svg id="Capa_1" xmlns="http://www.w3.org/2000/svg" version="1.1" xmlns:xlink="http://www.w3.org/1999/xlink" viewBox="0 0 551 512">
  <!-- Generator: Adobe Illustrator 29.0.0, SVG Export Plug-In . SVG Version: 2.1.0 Build 186)  -->
  <g>
    <path d="M139,16.1c-21.3,2.5-30.9,9.1-67.1,46.5-17.8,18.4-21.6,24.3-23.9,37.8-1.2,7.1-1.1,8.5.5,15,3.3,12.8,8.7,21.2,17.4,26.8,4.9,3.1,10.8,3.7,15.1,1.5,2.4-1.2,8.2-7.8,16.2-18.6,6.4-8.4,24.4-26.7,34.3-34.6,17-13.5,26.5-19.8,44.7-29.3,10.2-5.3,13.5-7.7,15.3-11.2,4.2-8.2-1.5-17.7-16-26.3-10.5-6.2-24.2-9.1-36.5-7.6ZM159.2,20.9c21.3,5.5,36.5,21.1,29.1,30-1,1.1-8.5,5.7-16.8,10.2-8.2,4.5-18.9,10.8-23.6,14-19.4,13.3-39.3,32.2-57.2,54.6-10.3,12.9-11.9,14-18.4,12.8-4.9-.9-14-10.1-17.8-18-5.5-11.5-4.5-28.7,2.3-40.5,3.1-5.4,42.3-45.3,50.7-51.7,15.9-12,33.8-15.9,51.7-11.4Z"/>
    <path d="M135.5,29c-6.6,1.3-14.9,4.8-19.8,8.3-7.4,5.3-47,44.8-50,49.9-6.3,10.8-7.1,24.3-2.2,34.5,2.7,5.4,9.4,12.3,12.1,12.3s1.9-.3,14-15c11.6-14.2,32.5-34.6,44.6-43.6,5.8-4.3,16.7-11.5,24.2-15.9,20.9-12.3,22.6-13.4,22.6-14.6,0-1.9-6.8-7.5-13.1-10.9-9.5-5.1-22.2-7-32.4-5Z"/>
    <path d="M391.3,18c-18.3,5.4-33.5,19-32,28.7,1,5.8,2.9,7.6,14.8,13.7,6.3,3.3,14.5,7.9,18.2,10.3,3.7,2.3,7,4.3,7.3,4.3s4.9,3.3,10.2,7.2c12.9,9.7,32.5,28.9,44.2,43.3,15.7,19.4,15,18.7,20.6,19.2,6.3.6,11.3-1.7,17-7.9,14.8-16,16.4-39.2,3.9-57.3-3.9-5.7-45.3-47.4-50.5-50.8-17.7-11.8-37-15.6-53.7-10.7ZM425.7,22.2c12,4.3,20,10.5,44.4,34.8,20.9,20.7,23,23.1,26.5,30.3,3.3,6.9,3.8,9,4.2,16.7.5,10.8-1.4,17.8-7.3,26.4-5.1,7.4-10.9,11.7-16.9,12.3-5.4.6-5.8.3-18.6-16.2-4.6-6.1-14.3-16.9-21.5-24-19.4-19.4-29.8-26.9-64-45.6-9.1-5.1-11.1-7.7-10.1-13.4.9-4.7,9.5-13.6,17.3-17.8,13.2-7.1,31.6-8.5,46-3.5Z"/>
    <path d="M399,28.7c-13.3,2.1-30.7,14.1-26.4,18.3.5.5,6.2,3.8,12.7,7.4,32.8,18.3,53.8,36.2,78.3,66.7,5.3,6.6,10.2,12.3,10.9,12.6,2.1.7,7-2.3,10.4-6.4,4.5-5.5,6.6-12.4,6.4-21.6-.1-6.9-.5-8.8-3.6-15.1s-6.1-9.7-23.4-26.8c-10.9-10.9-22.3-21.7-25.4-24.1-11.8-9.1-26.5-13.2-39.9-11Z"/>
    <path d="M269,47.1c-24.7,1-38.3,3.3-60,10.5-37.6,12.5-71.4,35.4-97.4,66.1-13.7,16.2-18.9,24-27.7,41.3-10.7,21.3-17.8,43.8-21.1,66.5-1.6,11.6-1.6,46.6.1,57,2,12.7,6.9,32.1,10.9,43,3.8,10.6,13.8,30.9,17.8,36.2,1.3,1.7,2.4,3.4,2.4,3.7,0,1.1,10.4,15.1,17.6,23.6,6.8,8.1,19,19.8,33.1,31.9,3.5,2.9,6.3,6.1,6.3,7s-5.9,10-13.1,20.2c-7.2,10.1-14,20.2-15,22.4-3.8,8.1-1.8,17.5,5.2,24.4,10,10,24.1,7.5,34.4-6.1,6.3-8.3,23.4-32.3,25.7-35.9,1.9-3.1,5.3-4.5,7.1-3.1,1.7,1.4,27,9.7,35.2,11.6,20.1,4.5,54.7,6.4,70,3.7,31.5-5.6,30-5.3,48.8-12.3,8.1-3,11.2-3.7,12-2.9,1.7,1.7,18.9,25.4,24.1,33.3,6.8,10.1,11.6,14.4,18.1,16.4,4.6,1.3,6.5,1.4,10.1.5,10.1-2.6,17.4-11.2,17.4-20.6-.1-7.9-2.7-12.7-22.4-39.7-5.4-7.4-7.6-11.3-7.2-12.5.3-1.1,6.1-6.4,12.9-12,6.7-5.6,13.3-11.4,14.6-13,1.4-1.5,5-5.6,8.2-9,14.1-15.2,30.5-40.7,36.9-57.4,1.1-3,2.4-6.3,2.9-7.4,8.1-18.5,14.3-50.2,14.1-72.5-.3-34.2-8.2-68.9-21.9-95.4-5.7-11.1-7.9-15.1-9.4-17-.4-.6-3.3-4.7-6.4-9.1-24.9-35.4-60.2-63.5-99.3-78.8s-36.4-11.8-48.7-13.1c-1.7-.2-6-.7-9.5-1.1-3.5-.3-7-.7-7.8-.9-.8-.1-9.4.1-19,.5ZM304.5,52.5c24.6,3.5,44.6,9.5,66,20,39.9,19.4,75.5,54.6,95.3,94,27.1,54,29.1,120.3,5.3,173.6-14.4,32.1-36.2,60.5-63.3,82.3-5.3,4.2-10,8.6-10.3,9.7-.8,2.5.7,5,16,26.4,6.9,9.7,13,18.7,13.5,20.1,4.5,11.8-4.7,24.9-17.5,24.8-9.3-.1-11.8-2.2-26.7-23.1-7.4-10.4-14.9-20.9-16.7-23.6-3.8-5.6-5-5.8-14.7-2.1-28.5,10.8-54,15.1-82.4,14.1-23.6-.9-47.6-6-69.9-14.9-4.1-1.6-7.9-2.7-8.6-2.4-1.1.4-19.5,25.7-29.4,40.4-7.4,10.9-17,14.8-25.8,10.4-5.3-2.7-10-8.3-10.9-12.7-1.5-7.9-.1-10.8,15.6-32.9,8.3-11.5,15-21.9,15-23,0-3-.6-3.6-9.5-10.7-56.2-44.5-85.1-107.9-80.5-176.4,2-30.2,8.3-53.3,21.7-80,10.2-20.3,20-34.1,36.8-51.3,18.7-19.4,35.4-31.4,59.7-43.1,21-10.2,40.3-16,64.3-19.6,12.3-1.8,44.5-1.8,57,0Z"/>
    <path d="M254.5,62.5c-65.2,7.5-119.8,42.4-152.1,97.1-13.2,22.4-22.5,50.2-25.4,76.2-1.6,13.8-.8,45.7,1.5,58.2,7.2,39.6,26.2,75.4,56,105.3,16,16,31.1,27,51.2,37,28.2,14.2,54.1,20.5,86.8,21.4,20.9.6,31.8-.6,51.8-5.3,51.1-12.2,100.1-49.2,126.2-95.3,32.9-58.2,34.9-127.4,5.3-186.6-19.1-37.9-50.4-68.8-89.9-88.4-23-11.4-46.3-17.8-73.2-20-15.7-1.3-23.9-1.2-38.2.4ZM293.1,93.1c72.2,7.3,132.6,59.6,147.8,127.9,7.3,33,4.8,69.1-6.9,98.4-21.6,54.5-72.1,94.9-130.9,105-6.1,1-15.4,1.6-26.2,1.6-27.8,0-49.8-4.9-73.4-16.5-60.4-29.5-96.5-85.3-96.5-149.4s8.7-63.5,27.7-91.8c35.3-52.9,95.8-81.6,158.4-75.2Z"/>
    <path d="M258.7,101c-12.2,1.5-23,4-35.2,8.1-24.7,8.4-41.8,19.1-61.1,38.4-23.9,23.8-37.2,48.2-44.2,80.9-2.2,10.5-2.5,14.6-2.6,31.1,0,21.2,1.7,32.7,7.6,50,15.4,45.6,53.7,83.6,100.7,99.9,40.5,14.1,83.3,11.6,121.8-7,28.2-13.6,53.2-36.2,68.5-61.9,10.2-17.1,15.6-30.8,19.5-49.3,2.2-10.8,2.6-15.3,2.7-30.7.1-19.4-.7-26.1-5.5-44.3-15.1-57.9-65.5-103-126.9-113.6-11.3-2-35.7-2.8-45.3-1.6ZM281.1,121c1.4,1.6,1.7,11.6,2.3,90.8.4,48.9.4,90.2,0,91.8s-1.3,3.6-2.1,4.6c-3.2,3.6-10.1,3-12.3-1.2-1.6-3-1.4-182.4.2-185,2.7-4.2,8.7-4.7,11.9-1ZM191.6,165.2c6.3,6,7.4,7.6,7.4,10.4,0,4-3.6,7-7.3,6-2.8-.7-16.7-14.8-16.7-16.9s.9-2.6,2.1-4.1c3.4-4.4,6.2-3.5,14.5,4.6ZM374.5,160.5c1.4,1.3,2.5,3.2,2.5,4.1,0,2.5-15.2,17.4-17.6,17.4s-6.4-3.7-6.4-6.7,1.9-4.6,7.3-10c8.1-8,10.3-8.8,14.2-4.8ZM159.7,254.2c2.7,2.5,3,6.4.6,9-1.4,1.5-3.2,1.8-13.4,1.8s-14.9-.8-14.9-6.1,2.7-6.9,14.7-6.9,10.9.2,13,2.2ZM418,254.2c2.4,2.6,2.6,6.5.3,9-1.4,1.5-3.2,1.8-13.4,1.8s-11.9-.1-13.3-2.2c-2.2-3.1-2-5.8.6-8.5,2-2.1,3-2.3,12.9-2.3s11,.2,12.9,2.2ZM190.4,296.3c1.3,1,2.2,3.9,3.2,10.4,5,34.2,27,60.4,58.9,70.3,9.1,2.8,26.5,3.8,37.2,2,30.2-4.8,54.5-25.1,64.4-53.7,2.4-6.9,4.9-18.3,4.9-22.2s3.5-8.1,7.6-8.1,7.4,2.8,7.4,10.3c-.1,20.4-11.4,44.3-29.2,61.2-13.4,12.9-25.6,19.8-43.4,24.7-6.7,1.8-10.6,2.1-25.4,2.1s-18.7-.3-25.5-2.1c-9.1-2.5-22-8.4-30.2-13.9-23.5-15.5-41.8-46.6-42.5-71.8-.1-6,.1-7,2.1-8.6,2.7-2.2,7.9-2.5,10.5-.6Z"/>
    <path d="M159.3,443.7c-26,35.7-27.3,37.7-27.3,42.4s3.3,7.5,7.4,8.9c5.4,1.7,9.3-.5,15.3-8.6,5.9-8.1,24.9-35.8,26.3-38.3.8-1.5-.3-2.5-7.4-6.4-4.5-2.6-8.5-4.7-8.8-4.7s-2.8,3-5.5,6.7Z"/>
    <path d="M383.5,438.9c-1.6,1-5.4,3.1-8.2,4.7l-5.3,3,9.4,14c16.1,24.2,23,33.1,26.9,34.3,7,2.4,13.7-2,13.7-8.8s-.7-5.5-21.3-34.1c-6-8.2-11.1-15-11.5-15s-2,.9-3.7,1.9Z"/>
  </g>
  <image width="551" height="512" transform="translate(-.2 -1.3)" xlink:href="../icon.png"/>
</svg>